Bruce Banner, a genetics researcher with a tragic past, suffers an accident that causes him to transform into a raging green monster when he gets angry.


General
Complete name                    : Z:\Movies\The.Hulk.[2003].DvdRip.XviD-Knã\The.Hulk.[2003].DvdRip.XviD-Knã.avi
Format                           : AVI
Format/Info                      : Audio Video Interleave
File size                        : 1.95 GiB
Duration                         : 2h 12mn
Overall bit rate                 : 2 111 Kbps
Writing application              : VirtualDubMod 1.5.4.1 (build 2178/release)
Writing library                  : VirtualDubMod build 2178/release

Video
ID                               : 0
Format                           : MPEG-4 Visual
Format profile                   : Advanced Simple@L5
Format settings, BVOP            : 1
Format settings, QPel            : No
Format settings, GMC             : No warppoints
Format settings, Matrix          : Custom
Codec ID                         : XVID
Codec ID/Hint                    : XviD
Duration                         : 2h 12mn
Bit rate                         : 1 720 Kbps
Width                            : 720 pixels
Height                           : 384 pixels
Display aspect ratio             : 1.875
Frame rate                       : 25.000 fps
Color space                      : YUV
Chroma subsampling               : 4:2:0
Bit depth                        : 8 bits
Scan type                        : Progressive
Compression mode                 : Lossy
Bits/(Pixel*Frame)               : 0.249
Stream size                      : 1.59 GiB (81%)
Writing library                  : XviD 1.2.1 (UTC 2008-12-04)

Audio
ID                               : 1
Format                           : AC-3
Format/Info                      : Audio Coding 3
Mode extension                   : CM (complete main)
Codec ID                         : 2000
Duration                         : 2h 12mn
Bit rate mode                    : Constant
Bit rate                         : 384 Kbps
Channel(s)                       : 6 channels
Channel positions                : Front: L C R, Side: L R, LFE
Sampling rate                    : 48.0 KHz
Bit depth                        : 16 bits
Compression mode                 : Lossy
Stream size                      : 364 MiB (18%)
Alignment                        : Split accross interleaves
Interleave, duration             : 96 ms (2.40 video frames)
Interleave, preload duration     : 96 ms
Language                         : English

